<svg width="279" height="115" viewBox="0 0 279 115" fill="none" xmlns="http://www.w3.org/2000/svg">
<g filter="url(#filter0_d_1_3165)">
<rect x="20" y="10" width="238.141" height="75" rx="18" fill="#292F36" shape-rendering="crispEdges"/>
<path d="M58.9322 49.32H62.5502C62.4422 49.704 62.2862 50.058 62.0822 50.382C61.8782 50.706 61.6262 50.994 61.3262 51.246C61.0382 51.498 60.6902 51.696 60.2822 51.84C59.8742 51.972 59.4122 52.038 58.8962 52.038C58.1162 52.038 57.4142 51.858 56.7902 51.498C56.1782 51.138 55.6922 50.634 55.3322 49.986C54.9722 49.326 54.7922 48.564 54.7922 47.7C54.7922 46.824 54.9722 46.068 55.3322 45.432C55.7042 44.796 56.2022 44.31 56.8262 43.974C57.4502 43.626 58.1402 43.452 58.8962 43.452C59.7002 43.452 60.3782 43.626 60.9302 43.974C61.4942 44.31 61.9322 44.754 62.2442 45.306L64.4402 44.028C64.0562 43.44 63.5942 42.936 63.0542 42.516C62.5262 42.084 61.9142 41.748 61.2182 41.508C60.5342 41.268 59.7602 41.148 58.8962 41.148C57.9242 41.148 57.0242 41.304 56.1962 41.616C55.3682 41.928 54.6482 42.372 54.0362 42.948C53.4242 43.524 52.9442 44.22 52.5962 45.036C52.2602 45.84 52.0922 46.728 52.0922 47.7C52.0922 48.672 52.2542 49.566 52.5782 50.382C52.9142 51.198 53.3822 51.9 53.9822 52.488C54.5942 53.076 55.3082 53.532 56.1242 53.856C56.9522 54.18 57.8522 54.342 58.8242 54.342C59.8562 54.342 60.7742 54.156 61.5782 53.784C62.3822 53.412 63.0542 52.902 63.5942 52.254C64.1462 51.594 64.5482 50.838 64.8002 49.986C65.0642 49.134 65.1782 48.228 65.1422 47.268H58.9322V49.32ZM71.2939 54.18C72.2899 54.18 73.1419 53.988 73.8499 53.604C74.5699 53.208 75.1459 52.62 75.5779 51.84L73.5439 51.21C73.3039 51.606 72.9979 51.906 72.6259 52.11C72.2659 52.302 71.8279 52.398 71.3119 52.398C70.8559 52.398 70.4659 52.296 70.1419 52.092C69.8179 51.888 69.5719 51.594 69.4039 51.21C69.2479 50.826 69.1699 50.358 69.1699 49.806C69.1819 49.23 69.2659 48.75 69.4219 48.366C69.5899 47.97 69.8239 47.676 70.1239 47.484C70.4359 47.28 70.8199 47.178 71.2759 47.178C71.6479 47.178 71.9719 47.262 72.2479 47.43C72.5239 47.598 72.7339 47.826 72.8779 48.114C73.0339 48.402 73.1119 48.75 73.1119 49.158C73.1119 49.242 73.0879 49.35 73.0399 49.482C73.0039 49.602 72.9619 49.698 72.9139 49.77L73.5439 48.942H68.1619V50.382H75.5779C75.5899 50.31 75.5959 50.214 75.5959 50.094C75.6079 49.974 75.6139 49.86 75.6139 49.752C75.6139 48.864 75.4459 48.108 75.1099 47.484C74.7739 46.848 74.2819 46.368 73.6339 46.044C72.9979 45.708 72.2239 45.54 71.3119 45.54C70.3999 45.54 69.6079 45.72 68.9359 46.08C68.2639 46.428 67.7419 46.926 67.3699 47.574C67.0099 48.21 66.8299 48.972 66.8299 49.86C66.8299 50.736 67.0099 51.498 67.3699 52.146C67.7419 52.782 68.2639 53.28 68.9359 53.64C69.6079 54 70.3939 54.18 71.2939 54.18ZM76.6702 45.72V47.682H81.7822V45.72H76.6702ZM78.0922 42.84V54H80.3422V42.84H78.0922ZM91.0117 43.65H96.6457V41.4H91.0117V43.65ZM91.0117 48.618H96.4657V46.476H91.0117V48.618ZM89.3557 41.4V54H91.8397V41.4H89.3557ZM101.085 45.72H98.7986V54H101.085V45.72ZM103.515 48.15L104.577 46.17C104.409 45.954 104.187 45.792 103.911 45.684C103.647 45.576 103.365 45.522 103.065 45.522C102.633 45.522 102.213 45.678 101.805 45.99C101.397 46.29 101.067 46.698 100.815 47.214C100.563 47.718 100.437 48.3 100.437 48.96L101.085 49.608C101.085 49.212 101.133 48.876 101.229 48.6C101.337 48.312 101.493 48.09 101.697 47.934C101.901 47.778 102.147 47.7 102.435 47.7C102.675 47.7 102.873 47.742 103.029 47.826C103.197 47.898 103.359 48.006 103.515 48.15ZM109.815 54.18C110.811 54.18 111.663 53.988 112.371 53.604C113.091 53.208 113.667 52.62 114.099 51.84L112.065 51.21C111.825 51.606 111.519 51.906 111.147 52.11C110.787 52.302 110.349 52.398 109.833 52.398C109.377 52.398 108.987 52.296 108.663 52.092C108.339 51.888 108.093 51.594 107.925 51.21C107.769 50.826 107.691 50.358 107.691 49.806C107.703 49.23 107.787 48.75 107.943 48.366C108.111 47.97 108.345 47.676 108.645 47.484C108.957 47.28 109.341 47.178 109.797 47.178C110.169 47.178 110.493 47.262 110.769 47.43C111.045 47.598 111.255 47.826 111.399 48.114C111.555 48.402 111.633 48.75 111.633 49.158C111.633 49.242 111.609 49.35 111.561 49.482C111.525 49.602 111.483 49.698 111.435 49.77L112.065 48.942H106.683V50.382H114.099C114.111 50.31 114.117 50.214 114.117 50.094C114.129 49.974 114.135 49.86 114.135 49.752C114.135 48.864 113.967 48.108 113.631 47.484C113.295 46.848 112.803 46.368 112.155 46.044C111.519 45.708 110.745 45.54 109.833 45.54C108.921 45.54 108.129 45.72 107.457 46.08C106.785 46.428 106.263 46.926 105.891 47.574C105.531 48.21 105.351 48.972 105.351 49.86C105.351 50.736 105.531 51.498 105.891 52.146C106.263 52.782 106.785 53.28 107.457 53.64C108.129 54 108.915 54.18 109.815 54.18ZM120.159 54.18C121.155 54.18 122.007 53.988 122.715 53.604C123.435 53.208 124.011 52.62 124.443 51.84L122.409 51.21C122.169 51.606 121.863 51.906 121.491 52.11C121.131 52.302 120.693 52.398 120.177 52.398C119.721 52.398 119.331 52.296 119.007 52.092C118.683 51.888 118.437 51.594 118.269 51.21C118.113 50.826 118.035 50.358 118.035 49.806C118.047 49.23 118.131 48.75 118.287 48.366C118.455 47.97 118.689 47.676 118.989 47.484C119.301 47.28 119.685 47.178 120.141 47.178C120.513 47.178 120.837 47.262 121.113 47.43C121.389 47.598 121.599 47.826 121.743 48.114C121.899 48.402 121.977 48.75 121.977 49.158C121.977 49.242 121.953 49.35 121.905 49.482C121.869 49.602 121.827 49.698 121.779 49.77L122.409 48.942H117.027V50.382H124.443C124.455 50.31 124.461 50.214 124.461 50.094C124.473 49.974 124.479 49.86 124.479 49.752C124.479 48.864 124.311 48.108 123.975 47.484C123.639 46.848 123.147 46.368 122.499 46.044C121.863 45.708 121.089 45.54 120.177 45.54C119.265 45.54 118.473 45.72 117.801 46.08C117.129 46.428 116.607 46.926 116.235 47.574C115.875 48.21 115.695 48.972 115.695 49.86C115.695 50.736 115.875 51.498 116.235 52.146C116.607 52.782 117.129 53.28 117.801 53.64C118.473 54 119.259 54.18 120.159 54.18ZM134.226 54H140.58V51.822H134.226V54ZM134.226 43.578H140.58V41.4H134.226V43.578ZM134.226 48.384H140.22V46.242H134.226V48.384ZM132.57 41.4V54H135.054V41.4H132.57ZM143.675 51.138L142.541 52.596C142.853 52.896 143.201 53.178 143.585 53.442C143.981 53.694 144.419 53.898 144.899 54.054C145.391 54.21 145.931 54.288 146.519 54.288C147.467 54.288 148.211 54.06 148.751 53.604C149.291 53.136 149.561 52.488 149.561 51.66C149.561 51.156 149.447 50.748 149.219 50.436C148.991 50.124 148.685 49.866 148.301 49.662C147.929 49.446 147.521 49.254 147.077 49.086C146.717 48.93 146.393 48.798 146.105 48.69C145.829 48.582 145.613 48.462 145.457 48.33C145.313 48.186 145.241 48.024 145.241 47.844C145.241 47.64 145.313 47.49 145.457 47.394C145.613 47.286 145.823 47.232 146.087 47.232C146.483 47.232 146.885 47.334 147.293 47.538C147.713 47.742 148.073 48.006 148.373 48.33L149.399 46.89C149.135 46.626 148.829 46.398 148.481 46.206C148.133 46.002 147.755 45.84 147.347 45.72C146.939 45.6 146.501 45.54 146.033 45.54C145.481 45.54 144.977 45.63 144.521 45.81C144.077 45.978 143.723 46.236 143.459 46.584C143.195 46.92 143.063 47.334 143.063 47.826C143.063 48.342 143.177 48.768 143.405 49.104C143.645 49.428 143.945 49.692 144.305 49.896C144.665 50.088 145.037 50.256 145.421 50.4C145.829 50.532 146.165 50.658 146.429 50.778C146.693 50.898 146.891 51.036 147.023 51.192C147.167 51.336 147.239 51.516 147.239 51.732C147.239 51.972 147.155 52.164 146.987 52.308C146.819 52.44 146.579 52.506 146.267 52.506C146.027 52.506 145.769 52.458 145.493 52.362C145.229 52.266 144.947 52.122 144.647 51.93C144.347 51.726 144.023 51.462 143.675 51.138ZM150.469 45.72V47.682H155.581V45.72H150.469ZM151.891 42.84V54H154.141V42.84H151.891ZM157.074 42.516C157.074 42.888 157.212 43.2 157.488 43.452C157.764 43.704 158.094 43.83 158.478 43.83C158.862 43.83 159.186 43.704 159.45 43.452C159.726 43.2 159.864 42.888 159.864 42.516C159.864 42.132 159.726 41.82 159.45 41.58C159.186 41.328 158.862 41.202 158.478 41.202C158.094 41.202 157.764 41.328 157.488 41.58C157.212 41.82 157.074 42.132 157.074 42.516ZM157.326 45.72V54H159.594V45.72H157.326ZM174.669 48.708C174.669 48.036 174.573 47.466 174.381 46.998C174.201 46.518 173.919 46.158 173.535 45.918C173.151 45.666 172.653 45.54 172.041 45.54C171.477 45.54 170.973 45.66 170.529 45.9C170.097 46.14 169.731 46.494 169.431 46.962C169.251 46.494 168.963 46.14 168.567 45.9C168.171 45.66 167.667 45.54 167.055 45.54C166.503 45.54 166.029 45.66 165.633 45.9C165.237 46.14 164.919 46.488 164.679 46.944V45.72H162.429V54H164.679V48.96C164.679 48.6 164.739 48.294 164.859 48.042C164.979 47.778 165.147 47.586 165.363 47.466C165.579 47.334 165.831 47.268 166.119 47.268C166.551 47.268 166.863 47.412 167.055 47.7C167.247 47.976 167.343 48.396 167.343 48.96V54H169.665V48.96C169.665 48.6 169.725 48.294 169.845 48.042C169.965 47.778 170.133 47.586 170.349 47.466C170.565 47.334 170.817 47.268 171.105 47.268C171.537 47.268 171.849 47.412 172.041 47.7C172.233 47.976 172.329 48.396 172.329 48.96V54H174.669V48.708ZM178.982 51.426C178.982 51.186 179.036 50.988 179.144 50.832C179.252 50.664 179.42 50.538 179.648 50.454C179.876 50.358 180.17 50.31 180.53 50.31C180.974 50.31 181.394 50.37 181.79 50.49C182.198 50.61 182.564 50.79 182.888 51.03V49.95C182.768 49.806 182.57 49.656 182.294 49.5C182.018 49.344 181.676 49.212 181.268 49.104C180.872 48.996 180.41 48.942 179.882 48.942C178.85 48.942 178.052 49.176 177.488 49.644C176.924 50.112 176.642 50.748 176.642 51.552C176.642 52.116 176.774 52.596 177.038 52.992C177.314 53.376 177.674 53.67 178.118 53.874C178.562 54.078 179.042 54.18 179.558 54.18C180.062 54.18 180.542 54.09 180.998 53.91C181.466 53.73 181.844 53.46 182.132 53.1C182.432 52.74 182.582 52.296 182.582 51.768L182.294 50.688C182.294 51.084 182.204 51.426 182.024 51.714C181.844 51.99 181.61 52.206 181.322 52.362C181.034 52.506 180.71 52.578 180.35 52.578C180.098 52.578 179.864 52.536 179.648 52.452C179.444 52.356 179.282 52.224 179.162 52.056C179.042 51.876 178.982 51.666 178.982 51.426ZM178.082 48.06C178.202 47.976 178.388 47.874 178.64 47.754C178.892 47.634 179.192 47.532 179.54 47.448C179.888 47.364 180.254 47.322 180.638 47.322C180.89 47.322 181.118 47.346 181.322 47.394C181.526 47.442 181.7 47.52 181.844 47.628C182 47.736 182.114 47.874 182.186 48.042C182.258 48.198 182.294 48.39 182.294 48.618V54H184.544V48.132C184.544 47.568 184.388 47.094 184.076 46.71C183.764 46.314 183.332 46.014 182.78 45.81C182.228 45.606 181.598 45.504 180.89 45.504C180.122 45.504 179.426 45.612 178.802 45.828C178.178 46.032 177.65 46.248 177.218 46.476L178.082 48.06ZM186.01 45.72V47.682H191.122V45.72H186.01ZM187.432 42.84V54H189.682V42.84H187.432ZM196.629 54.18C197.625 54.18 198.477 53.988 199.185 53.604C199.905 53.208 200.481 52.62 200.913 51.84L198.879 51.21C198.639 51.606 198.333 51.906 197.961 52.11C197.601 52.302 197.163 52.398 196.647 52.398C196.191 52.398 195.801 52.296 195.477 52.092C195.153 51.888 194.907 51.594 194.739 51.21C194.583 50.826 194.505 50.358 194.505 49.806C194.517 49.23 194.601 48.75 194.757 48.366C194.925 47.97 195.159 47.676 195.459 47.484C195.771 47.28 196.155 47.178 196.611 47.178C196.983 47.178 197.307 47.262 197.583 47.43C197.859 47.598 198.069 47.826 198.213 48.114C198.369 48.402 198.447 48.75 198.447 49.158C198.447 49.242 198.423 49.35 198.375 49.482C198.339 49.602 198.297 49.698 198.249 49.77L198.879 48.942H193.497V50.382H200.913C200.925 50.31 200.931 50.214 200.931 50.094C200.943 49.974 200.949 49.86 200.949 49.752C200.949 48.864 200.781 48.108 200.445 47.484C200.109 46.848 199.617 46.368 198.969 46.044C198.333 45.708 197.559 45.54 196.647 45.54C195.735 45.54 194.943 45.72 194.271 46.08C193.599 46.428 193.077 46.926 192.705 47.574C192.345 48.21 192.165 48.972 192.165 49.86C192.165 50.736 192.345 51.498 192.705 52.146C193.077 52.782 193.599 53.28 194.271 53.64C194.943 54 195.729 54.18 196.629 54.18Z" fill="white"/>
<path d="M212 47.4354L225.723 47.2986M220.618 40.9114L227.141 47.4344L220.487 54.0887" stroke="#CDA274" stroke-width="2" stroke-linecap="square" stroke-linejoin="round"/>
</g>
<defs>
<filter id="filter0_d_1_3165" x="0" y="0" width="278.141" height="115" filterUnits="userSpaceOnUse" color-interpolation-filters="sRGB">
<feFlood flood-opacity="0" result="BackgroundImageFix"/>
<feColorMatrix in="SourceAlpha" type="matrix" values="0 0 0 0 0 0 0 0 0 0 0 0 0 0 0 0 0 0 127 0" result="hardAlpha"/>
<feOffset dy="10"/>
<feGaussianBlur stdDeviation="10"/>
<feComposite in2="hardAlpha" operator="out"/>
<feColorMatrix type="matrix" values="0 0 0 0 0.754167 0 0 0 0 0.754167 0 0 0 0 0.754167 0 0 0 0.35 0"/>
<feBlend mode="normal" in2="BackgroundImageFix" result="effect1_dropShadow_1_3165"/>
<feBlend mode="normal" in="SourceGraphic" in2="effect1_dropShadow_1_3165" result="shape"/>
</filter>
</defs>
</svg>
